<svg width="97" height="96" viewBox="0 0 97 96" fill="none" xmlns="http://www.w3.org/2000/svg">
<rect width="96.2446" height="96" fill="#0D254E"/>
<circle cx="69.909" cy="52.1927" r="2.69485" fill="#EDEDED"/>
<path d="M23.6407 54.1697V31.1833L29.0465 31.2274V54.1697H23.6407ZM33.0166 54.1697C33.0166 54.1697 33.1619 54.1276 33.4537 54.0414C33.7444 53.9531 34.0793 53.7276 34.4562 53.3636C34.8332 53.0007 35.167 52.4273 35.4588 51.6433C35.7495 50.8573 35.8959 49.7805 35.8959 48.411C35.8959 47.1037 35.7285 46.0731 35.3946 45.3192C35.0598 44.5633 34.6668 44.0028 34.2156 43.6389C33.7665 43.276 33.3454 43.0364 32.9524 42.9211C32.5594 42.8038 32.3188 42.7306 32.2306 42.7005H32.1464C32.1464 42.7005 32.2907 42.6564 32.5795 42.5682C32.8702 42.48 33.2131 42.2554 33.6061 41.8945C33.9991 41.5316 34.3399 40.9561 34.6287 40.1701C34.9194 39.3841 35.0658 38.2933 35.0658 36.8978C35.0658 35.5323 34.8773 34.4636 34.5003 33.6936C34.1234 32.9237 33.6873 32.3653 33.193 32.0174C32.6978 31.6675 32.2607 31.4479 31.8817 31.3597C31.5047 31.2715 31.3163 31.2274 31.3163 31.2274C31.3163 31.2274 31.599 31.2504 32.1664 31.2955C32.7329 31.3387 33.4306 31.4469 34.2597 31.6204C35.0878 31.7948 35.9089 32.0775 36.722 32.4705C37.5371 32.8635 38.2278 33.424 38.7953 34.1508C39.3617 34.8787 39.6454 35.8231 39.6454 36.986C39.6454 38.3525 39.3467 39.4222 38.7512 40.1942C38.1546 40.9641 37.4278 41.5316 36.5696 41.8945C35.7134 42.2554 34.8994 42.48 34.1274 42.5682C33.3574 42.6564 32.798 42.7005 32.4511 42.7005C32.7419 42.7306 33.199 42.7807 33.8226 42.8529C34.4482 42.9251 35.139 43.0715 35.8959 43.29C36.6518 43.5066 37.3797 43.8264 38.0774 44.2485C38.7752 44.6715 39.3487 45.2249 39.7978 45.9087C40.249 46.5904 40.4755 47.4396 40.4755 48.4552C40.4755 49.7063 40.2199 50.7109 39.7096 51.4668C39.2013 52.2237 38.5837 52.7902 37.8569 53.1671C37.129 53.5441 36.3952 53.8068 35.6553 53.9531C34.9144 54.0975 34.2888 54.1697 33.7785 54.1697C33.2702 54.1697 33.0166 54.1697 33.0166 54.1697Z" fill="#EDEDED"/>
<path d="M49.7223 54.7391L39.8212 31.2274H46.2736L52.5575 46.8431L49.7223 54.7391ZM60.4937 54.7391L50.7249 31.2274H57.049L63.4612 46.8431L60.4937 54.7391Z" fill="#EDEDED"/>
<path d="M25.0637 63.6578C25.189 63.6979 25.2862 63.7641 25.3564 63.8543C25.4256 63.9455 25.4607 64.0578 25.4607 64.1912C25.4607 64.3816 25.3865 64.527 25.2401 64.6283C25.0927 64.7305 24.8792 64.7807 24.5985 64.7807H23.4836V62.6232H24.5343C24.799 62.6232 25.0005 62.6743 25.1399 62.7756C25.2812 62.8778 25.3524 63.0142 25.3524 63.1846C25.3524 63.2889 25.3263 63.3831 25.2762 63.4653C25.2251 63.5485 25.1539 63.6127 25.0637 63.6578ZM23.9769 63.0001V63.5094H24.4742C24.5965 63.5094 24.6907 63.4884 24.7549 63.4453C24.819 63.4032 24.8511 63.339 24.8511 63.2528C24.8511 63.1706 24.819 63.1074 24.7549 63.0643C24.6907 63.0222 24.5965 63.0001 24.4742 63.0001H23.9769ZM24.5624 64.4037C24.6927 64.4037 24.792 64.3826 24.8591 64.3395C24.9253 64.2974 24.9594 64.2303 24.9594 64.139C24.9594 63.9606 24.8271 63.8703 24.5624 63.8703H23.9769V64.4037H24.5624Z" fill="#EDEDED"/>
<path d="M30.6931 62.6232V64.7807H30.1918V63.8984H29.2133V64.7807H28.7161V62.6232H29.2133V63.4733H30.1918V62.6232H30.6931Z" fill="#EDEDED"/>
<path d="M35.6528 64.3195H34.6503L34.4618 64.7807H33.9485L34.9109 62.6232H35.4042L36.3666 64.7807H35.8413L35.6528 64.3195ZM35.4964 63.9385L35.1515 63.1164L34.8107 63.9385H35.4964Z" fill="#EDEDED"/>
<path d="M40.9936 64.7807L40.5805 64.1791H40.1193V64.7807H39.6221V62.6232H40.5524C40.7449 62.6232 40.9103 62.6553 41.0497 62.7194C41.1911 62.7836 41.2993 62.8748 41.3745 62.9921C41.4517 63.1104 41.4908 63.2478 41.4908 63.4052C41.4908 63.5656 41.4517 63.7049 41.3745 63.8222C41.2963 63.9375 41.187 64.0257 41.0457 64.0869L41.5309 64.7807H40.9936ZM40.9855 63.4052C40.9855 63.2849 40.9464 63.1926 40.8692 63.1285C40.791 63.0643 40.6778 63.0322 40.5284 63.0322H40.1193V63.7821H40.5284C40.6778 63.7821 40.791 63.75 40.8692 63.6859C40.9464 63.6197 40.9855 63.5255 40.9855 63.4052Z" fill="#EDEDED"/>
<path d="M46.4906 64.3195H45.488L45.2996 64.7807H44.7863L45.7487 62.6232H46.242L47.2044 64.7807H46.6791L46.4906 64.3195ZM46.3342 63.9385L45.9893 63.1164L45.6484 63.9385H46.3342Z" fill="#EDEDED"/>
<path d="M51.1496 63.0322H50.4598V62.6232H52.3406V63.0322H51.6509V64.7807H51.1496V63.0322Z" fill="#EDEDED"/>
<path d="M59.0407 62.6232L58.3349 64.7807H57.8016L57.3284 63.3209L56.8351 64.7807H56.3058L55.5959 62.6232H56.1133L56.5985 64.139L57.1078 62.6232H57.569L58.0622 64.1511L58.5635 62.6232H59.0407Z" fill="#EDEDED"/>
<path d="M62.2961 62.6232H62.7934V64.7807H62.2961V62.6232Z" fill="#EDEDED"/>
<path d="M66.9231 64.8167C66.7546 64.8167 66.5902 64.7937 66.4298 64.7486C66.2714 64.7035 66.1451 64.6433 66.0488 64.5681L66.2173 64.1912C66.3075 64.2613 66.4178 64.3155 66.5461 64.3556C66.6744 64.3957 66.8007 64.4157 66.9271 64.4157C67.0684 64.4157 67.1727 64.3957 67.2399 64.3556C67.309 64.3135 67.3441 64.2573 67.3441 64.1871C67.3441 64.137 67.3241 64.0939 67.284 64.0588C67.2439 64.0247 67.1917 63.9977 67.1276 63.9786C67.0654 63.9576 66.9812 63.9345 66.8749 63.9104C66.7115 63.8703 66.5762 63.8322 66.4699 63.7941C66.3656 63.754 66.2754 63.6919 66.2012 63.6057C66.126 63.5174 66.0889 63.4032 66.0889 63.2608C66.0889 63.1355 66.122 63.0222 66.1892 62.9199C66.2584 62.8187 66.3616 62.7385 66.498 62.6793C66.6343 62.6182 66.8007 62.5871 66.9992 62.5871C67.1356 62.5871 67.2689 62.6051 67.4003 62.6392C67.5336 62.6713 67.6489 62.7184 67.7451 62.7796L67.5928 63.1565C67.3942 63.0442 67.1957 62.9881 66.9952 62.9881C66.8559 62.9881 66.7526 63.0112 66.6864 63.0563C66.6193 63.1024 66.5862 63.1605 66.5862 63.2327C66.5862 63.3079 66.6243 63.3641 66.7025 63.4012C66.7797 63.4362 66.897 63.4713 67.0554 63.5054C67.2178 63.5455 67.3521 63.5856 67.4564 63.6257C67.5607 63.6638 67.6499 63.725 67.7251 63.8102C67.7993 63.8934 67.8374 64.0067 67.8374 64.1511C67.8374 64.2744 67.8023 64.3867 67.7331 64.4879C67.6659 64.5902 67.5627 64.6704 67.4243 64.7285C67.288 64.7867 67.1206 64.8167 66.9231 64.8167Z" fill="#EDEDED"/>
<path d="M72.7609 64.3796V64.7807H71.0927V62.6232H72.7208V63.0242H71.5859V63.4934H72.5885V63.8824H71.5859V64.3796H72.7609Z" fill="#EDEDED"/>
</svg>
